<svg width="223" height="72" viewBox="0 0 223 72" fill="none" xmlns="http://www.w3.org/2000/svg">
<path d="M7.68505 24.7434C9.1707 23.5225 10.7146 23.217 12.3167 23.8269C12.9105 24.0689 13.5722 24.1533 14.3019 24.0802C17.2538 23.7843 20.0052 24.4968 22.5562 26.2177C25.1039 27.9053 26.7661 30.1173 27.5429 32.8534C28.1204 34.9396 28.0994 37.2365 27.4797 39.7441C26.8899 42.2152 25.8373 44.4145 24.322 46.3419C22.8066 48.2693 21.1203 49.4936 19.263 50.0147C16.2052 50.9242 13.0856 50.5501 9.90445 48.8924C6.75644 47.2314 4.62487 44.8488 3.50973 41.7445C2.54728 39.161 2.50844 36.0996 3.39323 32.5604C4.27469 28.988 5.7053 26.3823 7.68505 24.7434ZM20.7408 28.6609C19.4041 28.3594 17.6595 28.3332 15.5069 28.5825C13.3842 28.7952 11.9315 29.1753 11.1489 29.7228C10.6415 30.0081 10.2551 30.1641 9.98979 30.1907C9.39278 30.2505 8.91537 31.1694 8.55756 32.9473C8.22959 34.6887 8.12884 36.5245 8.25531 38.4549C8.37846 40.352 8.70553 41.944 9.2365 43.2308C9.90347 44.5375 10.6135 45.4378 11.3665 45.9319C12.1162 46.3927 13.035 46.5352 14.1228 46.3591C16.4644 45.9904 18.5802 44.5389 20.4702 42.0044C22.39 39.4335 23.5088 36.5575 23.8265 33.3767C23.9953 31.7182 23.8839 30.6071 23.4924 30.0434C23.1307 29.4431 22.2136 28.9823 20.7408 28.6609ZM30.3669 24.4298C30.4961 24.0484 30.6934 23.8443 30.9588 23.8177C31.2241 23.7911 31.6421 23.9502 32.2126 24.2951C32.8927 24.7294 33.3124 25.2401 33.4717 25.8271C33.6642 26.4109 33.8436 27.8669 34.01 30.1952L34.2298 34.3942L35.3741 34.2796C36.1038 34.2064 36.9397 34.3571 37.8817 34.7317C38.8536 35.0698 39.4275 35.4478 39.6034 35.8657C39.8622 36.4427 39.8341 36.8308 39.5191 37.0299C39.2372 37.2256 38.3666 37.3967 36.9072 37.5429L34.2207 37.8122L34.2559 39.6679C34.2761 40.8719 34.3477 42.0875 34.4707 43.3147C34.6568 45.1721 34.4912 46.1937 33.9738 46.3795C33.4565 46.5654 32.4248 45.9653 30.8789 44.5792C30.1756 43.9127 29.7371 40.8746 29.5634 35.465C29.4228 30.052 29.6907 26.3736 30.3669 24.4298ZM22.2983 51.7205C22.7559 51.2727 23.3662 51.178 24.1291 51.4365C24.9218 51.6586 25.5389 52.1327 25.9802 52.859C26.3418 53.4593 26.5774 53.8042 26.6869 53.8937C26.7599 53.9534 27.2706 53.8687 28.2192 53.6396C29.1976 53.374 30.1726 53.0753 31.1444 52.7434C33.5721 51.8971 35.4444 51.8602 36.7614 52.6327C37.8295 53.2626 37.8678 54.1466 36.8764 55.2844C36.7603 55.4636 36.5929 55.6311 36.374 55.7871C35.7008 56.424 34.2648 56.97 32.0659 57.4249C29.9001 57.8764 28.2185 57.978 27.0211 57.7295C26.1023 57.5871 25.2332 57.2722 24.4139 56.7848C23.5945 56.2974 22.9543 55.7586 22.4931 55.1683C22.0319 54.578 21.7698 53.9678 21.7066 53.3376C21.6434 52.7074 21.8407 52.1684 22.2983 51.7205ZM46.4008 18.5515C46.6528 18.0572 47.2946 18.2776 48.3263 19.2127C48.9135 19.7234 49.2353 20.0931 49.2918 20.322C49.3814 20.5475 49.35 21.0699 49.1976 21.8892C48.8498 23.7666 48.6747 26.8662 48.6723 31.1879C48.6998 35.4732 48.9011 38.3173 49.2762 39.7202C49.3294 39.9159 49.3875 40.1614 49.4505 40.4565C49.7228 41.5013 50.1143 42.065 50.6251 42.1478C51.1359 42.2306 52.8174 41.9616 55.6697 41.3407C56.4889 41.1581 57.1274 41.0104 57.5851 40.8975C59.2268 40.5654 60.5568 40.2981 61.575 40.0956C62.6264 39.8897 63.5832 39.7436 64.4456 39.6571C65.3411 39.5674 66.0078 39.534 66.4456 39.5572C66.9166 39.577 67.3129 39.688 67.6347 39.8902C67.9863 40.056 68.2103 40.2848 68.3065 40.5767C68.4359 40.8652 68.5239 41.2416 68.5705 41.706C68.6369 42.3693 68.0782 42.9781 66.8942 43.5322C65.7103 44.0864 63.4534 44.7984 60.1235 45.6681C56.986 46.4516 54.4852 46.7357 52.6211 46.5206C50.7902 46.3021 49.0719 45.5363 47.4663 44.2232C45.7479 42.7874 44.6347 40.8722 44.1266 38.4776C43.6153 36.0498 43.6328 32.7148 44.1791 28.4725C44.391 26.9102 44.7372 25.0163 45.2176 22.7906C45.7279 20.5284 46.1223 19.1154 46.4008 18.5515ZM73.3318 20.023C73.5739 19.7643 73.9686 19.6912 74.5158 19.8039C75.0631 19.9165 75.6453 20.2099 76.2623 20.6841C76.9125 21.1549 77.3438 21.6142 77.5562 22.0619C77.7952 22.775 77.9233 24.8894 77.9407 28.4052C77.9581 31.921 77.8229 35.2511 77.535 38.3955C77.3895 40.2861 77.0995 41.4039 76.6651 41.7489C76.2307 42.094 75.4777 41.7674 74.4061 40.7693C73.8455 40.189 73.4789 39.7065 73.3063 39.3218C73.1636 38.9006 73.0058 37.9951 72.833 36.6054C72.6569 34.8476 72.5157 33.9405 72.4095 33.8841C72.3034 33.8277 71.461 33.9457 69.8822 34.2379C68.3002 34.497 67.2007 34.7244 66.5838 34.9203C66.03 35.0763 65.3151 34.7962 64.4393 34.0799C63.5602 33.3305 63.1222 32.6374 63.1254 32.0006C63.1187 31.5993 63.1452 31.3621 63.2049 31.2891C63.2944 31.1797 63.4867 31.0934 63.7819 31.0303C64.1434 30.9606 64.9577 30.7282 66.2246 30.3332C67.3622 29.9847 68.5429 29.7324 69.7667 29.5762C70.7916 29.44 71.4317 29.3088 71.6871 29.1827C71.9424 29.0566 72.0552 28.8443 72.0253 28.5458C71.9953 28.2473 71.7814 28.118 71.3834 28.1579C70.3883 28.2576 68.8543 28.3276 66.7814 28.3679C64.7382 28.3717 63.5624 28.3388 63.2539 28.2692C62.7763 28.1831 62.2638 27.9162 61.7164 27.4685C61.1989 26.9844 60.8356 26.5351 60.6266 26.1205C60.4175 25.7059 60.4008 25.3726 60.5766 25.1205C60.7954 24.9646 61.7689 24.8167 63.4969 24.6771C65.2216 24.5042 66.87 24.406 68.4422 24.3824C68.8435 24.3757 69.2946 24.364 69.7954 24.3473C70.2963 24.3306 70.7142 24.3222 71.0492 24.3221C71.3842 24.322 71.6014 24.317 71.7009 24.307C72.0359 24.307 72.2448 24.219 72.3277 24.0432C72.4438 23.8641 72.5879 23.2969 72.7602 22.3416C73.0352 21.0745 73.2257 20.3017 73.3318 20.023ZM69.7059 46.5167C70.3989 45.7437 70.8731 45.2942 71.1285 45.1681C71.3839 45.042 71.9626 44.9673 72.8648 44.9438C75.9394 44.8702 78.2912 45.7735 79.9202 47.6537C81.2075 49.1327 81.5212 50.592 80.8615 52.0317C80.1454 53.5775 78.469 54.3988 75.8321 54.4955C74.2301 54.5556 72.6463 54.1281 71.0805 53.213C69.5181 52.3311 68.6506 51.3628 68.4779 50.3081C68.3483 49.3496 68.3498 48.6962 68.4824 48.3479C68.6117 47.9664 69.0195 47.356 69.7059 46.5167ZM74.5972 49.6948C74.5806 49.5289 74.5026 49.4195 74.3633 49.3665C74.224 49.3134 74.1245 49.3234 74.0648 49.3964C73.9454 49.5423 73.909 49.68 73.9554 49.8093C74.0317 49.9022 74.1528 49.9403 74.3187 49.9237C74.5177 49.9037 74.6105 49.8274 74.5972 49.6948ZM94.3073 14.8554C94.629 14.3877 95.4831 14.5533 96.8697 15.3524C97.2976 15.611 97.5879 16.0006 97.7406 16.5213C97.89 17.0089 98.0926 18.1946 98.3484 20.0785C98.6075 21.9955 98.7935 23.0154 98.9063 23.1381C99.0489 23.2243 100.334 23.1792 102.762 23.0029C104.722 22.8399 106.009 22.8114 106.623 22.9174C107.266 22.9869 107.817 23.3002 108.275 23.8574C108.839 24.4708 108.658 25.0082 107.733 25.4694C106.711 25.9738 103.927 26.7721 99.38 27.8644C95.3205 28.8073 92.3288 29.2076 90.405 29.0654C88.4779 28.8901 87.1776 28.1159 86.504 26.7429C86.0859 25.9138 86.1786 25.335 86.7822 25.0065C87.3858 24.678 89.0557 24.2929 91.7919 23.8511C91.8881 23.808 92.0689 23.7731 92.3342 23.7465C93.9826 23.4808 94.9179 23.2866 95.1401 23.1638C95.3954 23.0377 95.4518 22.7641 95.309 22.3429C95.3024 22.2765 95.2808 22.2284 95.2443 22.1986C94.9987 21.4192 94.7447 20.0544 94.4822 18.1042C94.2164 16.1208 94.1581 15.0379 94.3073 14.8554ZM114.918 29.9753C115.243 29.2058 115.943 29.1691 117.017 29.8654C118.202 30.6512 118.938 31.6494 119.227 32.86C119.499 34.2397 119.697 35.0407 119.82 35.2629C119.942 35.4851 120.239 35.6061 120.71 35.6259C122.8 35.7514 124.052 36.2122 124.467 37.0081C124.829 37.6084 124.426 38.101 123.258 38.486C122.933 38.5856 122.524 38.6769 122.029 38.7599C120.942 38.936 120.302 39.0671 120.109 39.1534C119.917 39.2397 119.791 39.4868 119.731 39.8948C119.47 41.6295 119.029 42.7457 118.409 43.2434C117.818 43.7045 117.108 43.4742 116.279 42.5523C115.907 42.1875 115.549 41.2855 115.204 39.8461C114.859 38.4066 114.727 37.264 114.81 36.4182C114.836 36.0136 114.826 34.9091 114.779 33.1048C114.739 31.3668 114.785 30.3236 114.918 29.9753ZM95.4654 31.925C96.7755 31.6262 97.6644 31.4701 98.132 31.4568C98.6295 31.4069 99.3178 31.4217 100.197 31.5011C104.399 31.9844 107.552 33.5276 109.656 36.1308C111.756 38.7009 112.272 41.6809 111.205 45.0709C110.754 46.5901 110.431 47.5437 110.235 47.9318C110.04 48.32 109.753 48.6335 109.375 48.8724C107.8 49.8677 106.005 50.5166 103.992 50.8189C102.015 51.151 100.122 51.1398 98.3105 50.7853C96.5028 50.464 94.8642 49.8242 93.3946 48.866C91.925 47.9078 90.9015 46.7206 90.3241 45.3045C89.8031 44.1172 89.5772 42.5318 89.6464 40.5483C89.7123 38.5317 90.032 37.0424 90.6056 36.0804C91.6898 34.1962 92.401 33.1032 92.7392 32.8013C93.1106 32.496 94.0194 32.204 95.4654 31.925ZM104.253 35.8684C102.846 35.5403 101.209 35.5871 99.342 36.0088C97.4748 36.4304 96.2941 37.0178 95.8001 37.7708C95.5945 38.0594 95.4238 38.6963 95.2881 39.6814C95.1523 40.6665 95.0961 41.6101 95.1196 42.5123C95.153 43.849 95.4319 44.96 95.9561 45.8455C96.5136 46.7276 97.2052 47.2781 98.0312 47.4968C98.8571 47.7155 99.7112 47.7137 100.593 47.4912C101.509 47.2655 102.391 46.7081 103.24 45.819C104.085 44.8967 104.725 43.7606 105.159 42.4105C105.892 40.3606 106.174 38.8249 106.004 37.8033C105.868 36.7785 105.284 36.1335 104.253 35.8684ZM135.421 14.0512C135.729 13.4508 136.535 13.4705 137.839 14.1104C138.652 14.5314 139.07 15.0255 139.093 15.5927C139.15 16.1565 138.931 17.82 138.438 20.583C138.395 20.8218 138.327 21.1468 138.234 21.5581C138.012 22.6859 137.856 23.472 137.767 23.9165C137.677 24.361 137.613 24.8867 137.573 25.4937C137.533 26.1006 137.522 26.4871 137.538 26.6529C137.552 26.7856 137.643 27.0277 137.812 27.3792C137.981 27.7307 138.141 27.9828 138.29 28.1353C138.469 28.2514 138.746 28.5084 139.121 28.9063C139.304 29.0555 139.45 29.1749 139.559 29.2644C141.851 31.4132 144.455 33.1622 147.371 34.5115C148.214 34.896 148.917 35.2275 149.481 35.506C150.045 35.7845 150.541 36.0531 150.969 36.3117C151.426 36.5338 151.765 36.7344 151.984 36.9134C152.233 37.056 152.398 37.2069 152.481 37.3661C152.597 37.5219 152.646 37.6679 152.626 37.8039C152.603 37.9067 152.531 38.0311 152.412 38.177C151.934 38.7609 150.838 38.854 149.123 38.4564C147.405 38.0256 145.518 37.2433 143.461 36.1094C141.434 34.939 139.769 33.6989 138.465 32.3891C137.53 31.4108 136.976 30.8968 136.803 30.8471C136.528 30.7742 136.289 31.0662 136.087 31.7229C135.928 32.1409 135.515 33.874 134.849 36.9223C134.157 40.0402 133.631 42.1531 133.273 43.261C132.912 44.3357 132.534 44.9096 132.14 44.9827C131.878 45.0425 131.413 44.9215 130.746 44.6198C130.076 44.285 129.59 43.9484 129.288 43.6102C128.797 43.0564 129.428 38.4874 131.181 29.9031C132.967 21.3155 134.38 16.0316 135.421 14.0512ZM162.511 15.1048C163.194 14.5674 163.951 14.5921 164.78 15.1789C165.606 15.7327 166.112 16.6032 166.298 17.7906C166.451 18.9813 166.556 22.2035 166.614 27.4573C166.668 32.6779 166.61 35.4474 166.441 35.7659C165.971 36.7511 165.369 37.0962 164.636 36.8011C163.932 36.4696 163.257 35.5825 162.61 34.1399C162.126 32.6474 161.783 30.5712 161.584 27.9112C161.381 25.218 161.36 22.5065 161.522 19.7767C161.684 17.047 162.014 15.4897 162.511 15.1048ZM154.945 19.3305C155.267 18.8627 155.897 18.7996 156.836 19.141C157.807 19.4791 158.549 20.0245 159.06 20.7773C159.339 21.2184 159.594 23.6048 159.828 27.9364C160.091 32.2316 160.099 34.6595 159.854 35.2201C159.695 35.6381 159.345 35.8239 158.804 35.7776C158.297 35.7279 157.718 35.4677 157.068 34.9968C156.385 34.5293 155.913 34.007 155.655 33.43C155.429 32.8496 155.162 31.6871 154.853 29.9426C154.66 28.6889 154.521 27.9658 154.434 27.7735C154.348 27.5811 154.172 27.4982 153.907 27.5248C153.479 27.6012 152.71 27.6113 151.599 27.5552C150.521 27.4957 149.708 27.4097 149.161 27.297C147.758 27.0022 146.517 26.3225 145.439 25.2581C144.662 24.5319 144.498 24.0626 144.946 23.8502C145.072 23.7706 146.417 23.82 148.981 23.9985C151.541 24.1439 153.112 24.2712 153.692 24.3806C153.928 24.3905 154.074 24.3423 154.13 24.2362C154.187 24.13 154.236 23.7901 154.279 23.2162C154.279 22.5462 154.355 21.8016 154.508 20.9823C154.66 20.163 154.806 19.6124 154.945 19.3305ZM181.422 5.77236C181.84 5.59648 182.352 5.52837 182.959 5.56803C183.596 5.57121 184.092 5.67226 184.447 5.87119C184.835 6.06679 185.757 6.07487 187.213 5.89544C189.528 5.5964 191.847 6.00053 194.169 7.10781C196.491 8.2151 198.425 9.79677 199.971 11.8528C201.55 13.9056 202.46 16.126 202.699 18.514C202.822 20.0762 202.348 21.6982 201.277 23.38C200.239 25.0586 198.808 26.4918 196.984 27.6796C195.194 28.8641 193.353 29.5511 191.462 29.7405C190.501 29.837 189.879 29.983 189.597 30.1788C189.222 30.4508 187.892 30.3832 185.607 29.9757C183.318 29.5351 181.595 29.0545 180.437 28.5341C179.558 28.1197 178.55 27.4167 177.412 26.4253C176.274 25.4338 175.466 24.56 174.988 23.8039C174.491 22.8488 174.193 21.7228 174.097 20.4259C174.034 19.1258 174.193 17.7028 174.574 16.1571C174.988 14.6081 175.512 13.1486 176.145 11.7786C176.775 10.3755 177.554 9.12485 178.482 8.02679C179.444 6.92539 180.424 6.17392 181.422 5.77236ZM192.184 10.372C190.387 10.1502 188.451 10.2269 186.378 10.6022C184.306 10.9774 182.606 11.5665 181.279 12.3695C180.487 12.8174 179.908 14.2322 179.544 16.6137C179.18 18.9953 179.233 20.8659 179.704 22.2257C180.591 24.7164 182.219 26.0942 184.591 26.359C186.959 26.5906 189.531 25.6796 192.307 23.6259C193.866 22.4646 195.006 21.3118 195.729 20.1673C196.482 18.9864 196.901 17.6546 196.987 16.172C197.126 14.215 196.853 12.8353 196.17 12.0328C195.483 11.1971 194.155 10.6435 192.184 10.372ZM186.478 32.1497C186.886 31.8743 187.392 31.7398 187.995 31.7463C188.629 31.7163 189.073 31.8058 189.329 32.0147C189.617 32.2203 189.836 32.5668 189.986 33.0544C190.168 33.5386 190.379 34.4722 190.618 35.8552C190.787 36.8768 190.93 37.4655 191.046 37.6213C191.162 37.7772 191.436 37.8335 191.867 37.7903C192.332 37.7438 192.604 37.616 192.683 37.407C192.759 37.1649 192.799 36.3904 192.802 35.0836C192.788 33.6109 192.873 32.6142 193.055 32.0935C193.271 31.5694 193.673 31.2442 194.264 31.118C195.149 30.9288 195.879 31.1906 196.453 31.9036C197.024 32.5834 197.366 33.6547 197.479 35.1174L197.653 36.8586L199.146 36.7091C200.904 36.5329 202.036 36.8046 202.544 37.5242C202.969 38.0847 202.685 38.5988 201.694 39.0667C201.438 39.1928 201.13 39.2907 200.768 39.3605C200.344 39.47 199.024 39.8368 196.808 40.4609C194.755 41.0351 192.512 41.5448 190.077 41.9898C187.646 42.4679 186.028 42.6972 185.222 42.6774C184.246 42.6412 183.094 42.3379 181.764 41.7678C180.467 41.1942 179.796 40.6919 179.753 40.2607C179.737 40.0949 180.448 39.8393 181.887 39.4941C183.357 39.1123 184.771 38.8533 186.131 38.717C186.496 38.6804 186.71 38.6422 186.773 38.6024C186.833 38.5294 186.816 38.3636 186.723 38.1049C186.152 36.7551 185.842 35.4964 185.792 34.3289C185.775 33.1581 186.004 32.4317 186.478 32.1497ZM210.389 31.6626C211.212 31.1782 212.459 31.2542 214.131 31.8906C215.106 32.2619 215.66 32.4409 215.792 32.4276C216.224 32.3844 217.059 32.8701 218.3 33.8847C219.541 34.8994 220.181 35.6057 220.221 36.0037C220.241 36.2027 220.42 36.4863 220.759 36.8544C221.097 37.2225 221.251 37.5922 221.222 37.9637C221.228 38.3651 221.038 39.1379 220.65 40.2823C220.149 41.639 219.881 42.4699 219.844 42.775C219.748 43.1532 219.289 44.422 218.467 46.5814C218.437 46.6179 218.409 46.6709 218.383 46.7406C218.061 47.5433 217.832 48.1023 217.696 48.4174C217.597 48.7624 217.43 49.0974 217.194 49.4225C216.992 49.7443 216.843 49.9267 216.747 49.9699C216.65 50.013 216.448 49.9998 216.14 49.9302C215.831 49.8606 215.569 49.7529 215.353 49.607C215.171 49.4578 214.809 49.1925 214.269 48.8112C214.196 48.7515 214.159 48.7217 214.159 48.7217C213.655 48.3702 213.313 47.8015 213.134 47.0154C212.991 46.2592 213.086 45.697 213.417 45.3288C213.566 45.1463 213.628 44.9224 213.601 44.6571C213.578 44.4249 213.704 43.8428 213.979 42.9107C214.214 42.2506 214.323 41.8376 214.307 41.6718C214.294 41.5391 214.181 41.4164 213.968 41.3037C212.867 40.6771 212.063 40.1715 211.555 39.7868C211.048 39.4022 210.49 38.8551 209.883 38.1454C208.785 36.8819 208.279 35.6764 208.365 34.5288C208.448 33.348 209.122 32.3926 210.389 31.6626Z" fill="#181818"/>
</svg>
